<svg xmlns="http://www.w3.org/2000/svg" xmlns:xlink="http://www.w3.org/1999/xlink" style="isolation:isolate" width="179" height="195" viewBox="0 0 179 195"><defs><clipPath id="_clipPath_2GFXlhoLK0PQwPMcNgecx9cHDe99PPCk"><rect width="179" height="195"/></clipPath></defs><g clip-path="url(#_clipPath_2GFXlhoLK0PQwPMcNgecx9cHDe99PPCk)"><g><path fill="#283593" d="M 89.075 0 L 89.075 0 L 89.075 0 L 0 32.372 L 13.451 152.148 L 89.075 194.939 L 89.075 194.939 L 89.075 194.939 L 164.799 152.148 L 178.549 32.372 L 89.075 0 L 89.075 0 Z"/><path fill="#1A237E" d="M 89.075 0 L 89.075 21.649 L 89.075 21.649 L 89.075 120.079 L 89.075 120.079 L 89.075 194.939 L 89.075 194.939 L 164.799 152.148 L 178.549 32.372 L 89.075 0 L 89.075 0 Z"/><path fill="#5C6BC0" d="M 102.725 145.016 L 39.655 114.161 L 75.824 91.501 L 139.292 122.457 L 102.725 145.016 L 102.725 145.016 Z"/><path fill="#9FA8DA" d="M 102.725 121.243 L 39.655 90.287 L 75.824 67.728 L 139.292 98.684 L 102.725 121.243 L 102.725 121.243 Z"/><path fill="#E8EAF6" d="M 102.725 97.47 L 39.655 66.514 L 75.824 43.854 L 139.292 74.809 L 102.725 97.47 L 102.725 97.47 Z"/></g></g></svg>